<?xml version="1.0" encoding="UTF-8"?>
<svg width="109px" height="36px" viewBox="0 0 109 36" version="1.1" xmlns="http://www.w3.org/2000/svg" xmlns:xlink="http://www.w3.org/1999/xlink">
    <!-- Generator: Sketch 47.1 (45422) - http://www.bohemiancoding.com/sketch -->
    <title>logo_toast_color_36px</title>
    <desc>Created with Sketch.</desc>
    <defs></defs>
    <g id="toast-account" stroke="none" stroke-width="1" fill="none" fill-rule="evenodd">
        <g id="toast_account_로그인" transform="translate(-390.000000, -17.000000)">
            <g id="Navbar_dark">
                <g id="logo_toast" transform="translate(390.000000, 17.000000)">
                    <path d="M33.3664571,14.41872 C27.5207832,14.41872 22.7826769,19.16872 22.7790835,25.02432 C22.7802813,30.88352 27.5207832,35.63352 33.3664571,35.63352 C39.2141275,35.62952 43.952633,30.88352 43.952633,25.02432 C43.952633,19.16872 39.2141275,14.41872 33.3664571,14.41872" id="Fill-1" fill="#4B96E6"></path>
                    <path d="M66.0042114,33.5398 L55.6208634,15.5202 C55.4447864,15.2138 55.1189842,15.0262 54.7656326,15.0262 C54.412281,15.0262 54.0872773,15.2158 53.9104018,15.5202 L43.5266546,33.5438 C43.4364201,33.6962 43.3936985,33.8658 43.3936985,34.0378 C43.3936985,34.2078 43.4364201,34.3798 43.5266546,34.5322 C43.7023322,34.8366 44.0277352,35.0262 44.3814861,35.0262 L65.1505777,35.0262 C65.5051271,35.0262 65.8297315,34.8366 66.0050099,34.5302 C66.0944458,34.3798 66.1407608,34.2078 66.1407608,34.0378 C66.1407608,33.8658 66.0944458,33.6922 66.0042114,33.5398" id="Fill-3" fill="#4B96E6"></path>
                    <path d="M20.0720905,15.3142 C19.8860319,15.1286 19.6404824,15.0274 19.3769659,15.0262 L1.38677546,15.0262 C1.12325897,15.0262 0.876511722,15.1286 0.688057509,15.3154 C0.502398168,15.5026 0.400984249,15.7498 0.399387179,16.0134 L0.399387179,24.0378 C0.400984249,24.3026 0.502398168,24.5486 0.688057509,24.7362 C0.876511722,24.9226 1.12485604,25.025 1.38677546,25.025 L5.39062894,25.025 L5.39062894,34.0378 C5.39262527,34.3006 5.49324066,34.5506 5.68249341,34.7394 C5.86735421,34.9226 6.11649707,35.025 6.37841648,35.0262 L14.3845264,35.0262 C14.6488414,35.025 14.8963872,34.9226 15.081248,34.7394 C15.2685044,34.5506 15.3719147,34.3006 15.3723139,34.0378 L15.3723139,25.025 L19.1234311,25.025 C19.6388853,25.025 19.8860319,24.9226 20.0744861,24.7362 C20.260944,24.5486 20.3619586,24.2974 20.3619586,24.0378 L20.3619586,16.0134 C20.3619586,15.7526 20.260944,15.5026 20.0720905,15.3142" id="Fill-5" fill="#4B96E6"></path>
                    <path d="M108.406888,15.31344 C108.222027,15.12944 107.975679,15.02824 107.712163,15.02624 L89.7207747,15.02624 C89.4580568,15.02624 89.2109103,15.12944 89.0232546,15.31544 C88.8403901,15.50264 88.7357821,15.75064 88.7357821,16.01424 L88.7337857,24.03784 C88.7357821,24.30144 88.8403901,24.54944 89.0232546,24.73864 C89.2109103,24.92264 89.4600531,25.02424 89.7207747,25.02424 L93.7246282,25.02424 L93.7246282,34.03784 C93.7274231,34.30144 93.8284377,34.54944 94.0168919,34.74104 C94.2025513,34.92264 94.4488993,35.02624 94.7116172,35.02624 L102.721321,35.02624 C102.983639,35.02424 103.230386,34.92264 103.416046,34.74104 C103.603701,34.54944 103.706313,34.30144 103.706313,34.03784 L103.706313,25.02424 L107.458628,25.02424 C107.972885,25.02424 108.221229,24.92264 108.409683,24.73864 C108.594544,24.54944 108.697156,24.29784 108.697156,24.03784 L108.697156,16.01424 C108.697156,15.75464 108.594544,15.50264 108.406888,15.31344" id="Fill-7" fill="#4B96E6"></path>
                    <path d="M83.0085707,21.20972 L85.7148051,16.50852 C85.8050396,16.35612 85.8481604,16.18612 85.8481604,16.01452 C85.8481604,15.84452 85.8050396,15.67252 85.7148051,15.52012 C85.5387282,15.21572 85.2141238,15.02652 84.8607722,15.02652 L74.2043253,15.02652 C70.1593473,15.02812 66.878567,18.30172 66.8590029,22.34852 C66.8590029,25.13772 68.4065634,27.56732 70.6899736,28.81332 L67.9637758,33.54372 C67.8767355,33.69252 67.8316183,33.86612 67.8316183,34.03772 C67.8316183,34.20772 67.8767355,34.37972 67.9637758,34.53212 C68.1394535,34.83652 68.4648564,35.02652 68.8194059,35.02652 L79.4754535,35.02652 C83.5332081,35.02412 86.8203766,31.73092 86.8203766,27.66492 C86.8203766,24.88372 85.2819993,22.46172 83.0085707,21.20972" id="Fill-10" fill="#4B96E6"></path>
                    <path d="M2.32026264,1.45208 C2.32026264,0.77728 2.18531026,0.30528 1.74172418,0.04128 C1.66985604,8.00000001e-05 1.59559231,-0.02192 1.52172784,0.03128 C1.36082308,0.14008 0.862138095,0.62608 0.651724176,0.85888 C0.453687546,1.08168 0.398987912,1.21488 0.398987912,1.57368 L0.398987912,8.71208 C0.398987912,9.30648 0.532343223,9.72768 0.9735337,9.95728 C1.04939451,9.99848 1.1216619,10.01408 1.19472784,9.96848 C1.35722967,9.87088 1.85551538,9.44208 2.06393297,9.23568 C2.26396593,9.03688 2.32026264,8.92408 2.32026264,8.60448 L2.32026264,1.45208 Z" id="Fill-12" fill="#494949"></path>
                    <path d="M14.979874,1.45208 C14.979874,0.77728 14.8497128,0.30528 14.4057275,0.04128 C14.3310645,8.00000001e-05 14.2587971,-0.02192 14.1861304,0.03128 C14.0280205,0.14008 13.5265407,0.62608 13.3153282,0.85888 C13.114896,1.08168 13.064189,1.21488 13.064189,1.57368 L13.064189,8.71208 C13.064189,9.30648 13.1943502,9.72768 13.6403319,9.95728 C13.7137971,9.99848 13.7812733,10.01408 13.8603282,9.96848 C14.0200352,9.87088 14.5175223,9.44208 14.7295333,9.23568 C14.9299656,9.03688 14.979874,8.92408 14.979874,8.60448 L14.979874,1.45208 Z" id="Fill-15" fill="#494949"></path>
                    <path d="M10.784452,5.40248 C11.3466205,5.69208 11.6764154,6.01968 11.6812066,6.54568 C11.6855985,6.63888 11.66843,6.71248 11.5873788,6.76088 C11.4172908,6.86768 10.7748696,7.13408 10.4766168,7.23128 C10.1975289,7.32648 10.0589832,7.32008 9.75873407,7.16768 L4.74752894,4.60728 C4.11588791,4.28728 3.72939707,3.93208 3.69745568,3.38848 C3.69186593,3.29808 3.70584029,3.21488 3.79168278,3.17368 C3.97215165,3.07088 4.6720674,2.83248 4.99028352,2.74768 C5.29811868,2.66448 5.4510381,2.68248 5.78442637,2.85128 L10.784452,5.40248 Z" id="Fill-18" fill="#494949"></path>
                    <path d="M28.7963227,1.45208 C28.7963227,0.77728 28.6637659,0.30528 28.2213777,0.04128 C28.1507073,8.00000001e-05 28.0768429,-0.02192 28.0025791,0.03128 C27.839678,0.14008 27.3405938,0.62608 27.1293813,0.85888 C26.9305462,1.08168 26.8790407,1.21488 26.8790407,1.57368 L26.8790407,8.71208 C26.8790407,9.30648 27.012396,9.72768 27.4527879,9.95728 C27.5278502,9.99848 27.5985205,10.01408 27.6751799,9.96848 C27.8348868,9.87088 28.3339711,9.44208 28.5459821,9.23568 C28.7456158,9.03688 28.7963227,8.92408 28.7963227,8.60448 L28.7963227,1.45208 Z" id="Fill-20" fill="#494949"></path>
                    <path d="M41.4566927,1.45208 C41.4566927,0.77728 41.3313227,0.30528 40.8829454,0.04128 C40.8110773,8.00000001e-05 40.7372128,-0.02192 40.6621505,0.03128 C40.5020443,0.14008 40.0049564,0.62608 39.795341,0.85888 C39.5933117,1.08168 39.5390114,1.21488 39.5390114,1.57368 L39.5390114,8.71208 C39.5390114,9.30648 39.6759601,9.72768 40.1175498,9.95728 C40.1906158,9.99848 40.2660773,10.01408 40.3379454,9.96848 C40.4984509,9.87088 40.9951396,9.44208 41.2079491,9.23568 C41.4075828,9.03688 41.4566927,8.92408 41.4566927,8.60448 L41.4566927,1.45208 Z" id="Fill-23" fill="#494949"></path>
                    <path d="M37.2651436,5.40248 C37.8225209,5.69208 38.1579055,6.01968 38.1622974,6.54568 C38.1622974,6.63888 38.1447297,6.71248 38.0672718,6.76088 C37.8995795,6.86768 37.2563597,7.13408 36.9569092,7.23128 C36.6746271,7.32648 36.5360813,7.32008 36.2410227,7.16768 L31.227422,4.60728 C30.5945832,4.28728 30.2144806,3.93208 30.1781473,3.38848 C30.1709604,3.29808 30.1869311,3.21488 30.2739714,3.17368 C30.454041,3.07088 31.1519604,2.83248 31.4701766,2.74768 C31.7756161,2.66448 31.927737,2.68248 32.2659165,2.85128 L37.2651436,5.40248 Z" id="Fill-26" fill="#494949"></path>
                    <path d="M18.2765451,3.9814 C17.8980396,3.9814 17.7578967,4.0326 17.5203326,4.2478 C17.2731861,4.4686 16.7601275,4.9998 16.645937,5.169 C16.5884425,5.2494 16.6112007,5.3266 16.6595121,5.4046 C16.9354059,5.8746 17.4392813,6.0186 18.1491788,6.0186 L23.5832081,6.0186 C23.9585194,6.0186 24.1026549,5.9582 24.3406183,5.7466 C24.5845707,5.5278 25.0976293,4.9926 25.2178088,4.8246 C25.2705121,4.7426 25.246556,4.6674 25.200241,4.591 C24.9247465,4.119 24.4212703,3.9814 23.7121714,3.9814 L18.2765451,3.9814 Z" id="Fill-28" fill="#FF1414"></path>
                </g>
            </g>
        </g>
    </g>
</svg>