<svg xmlns="http://www.w3.org/2000/svg" width="62" height="20" viewBox="0 0 62 20">
    <g fill="#FFF" fill-rule="evenodd">
        <path d="M19.709.289A.988.988 0 0 0 19.011 0H.99A.994.994 0 0 0 0 .988v8.024A.988.988 0 0 0 .99 10h4.011v9.011A.99.99 0 0 0 5.99 20h8.021a.988.988 0 0 0 .989-.989V10h3.758c.516-.001.764-.102.953-.29a.983.983 0 0 0 .288-.698V.988a.98.98 0 0 0-.29-.699M32.969 20a9.927 9.927 0 0 1-7.049-2.929A9.997 9.997 0 0 1 23 10a9.997 9.997 0 0 1 2.92-7.071A9.931 9.931 0 0 1 32.969 0a9.941 9.941 0 0 1 7.635 3.572c.734.876.62 2.182-.253 2.918a2.06 2.06 0 0 1-2.909-.254 5.81 5.81 0 0 0-4.473-2.094 5.808 5.808 0 0 0-4.129 1.716A5.84 5.84 0 0 0 27.13 10a5.84 5.84 0 0 0 1.71 4.142 5.803 5.803 0 0 0 4.129 1.715c1.801 0 3.395-.81 4.474-2.093a2.059 2.059 0 0 1 2.908-.254c.873.736.986 2.043.253 2.918A9.939 9.939 0 0 1 32.971 20h-.002zM52.969 20a9.927 9.927 0 0 1-7.049-2.929A9.997 9.997 0 0 1 43 10a9.997 9.997 0 0 1 2.92-7.071A9.931 9.931 0 0 1 52.969 0a9.941 9.941 0 0 1 7.635 3.572c.734.876.62 2.182-.253 2.918a2.06 2.06 0 0 1-2.909-.254 5.81 5.81 0 0 0-4.473-2.094 5.808 5.808 0 0 0-4.129 1.716A5.84 5.84 0 0 0 47.13 10a5.84 5.84 0 0 0 1.71 4.142 5.803 5.803 0 0 0 4.129 1.715 5.81 5.81 0 0 0 4.473-2.093 2.06 2.06 0 0 1 2.909-.254c.873.736.986 2.043.253 2.918A9.939 9.939 0 0 1 52.971 20h-.002z"/>
    </g>
</svg>
