<svg xmlns="http://www.w3.org/2000/svg" width="149" height="47" viewBox="0 0 149 47">
    <g fill="none" fill-rule="evenodd">
        <g fill="#4B96E7">
            <path d="M20 33v11.5a1.5 1.5 0 0 1-1.5 1.5h-10A1.5 1.5 0 0 1 7 44.5V33H1.5A1.5 1.5 0 0 1 0 31.5v-11A1.5 1.5 0 0 1 1.5 19h25a1.5 1.5 0 0 1 1.5 1.5v11a1.5 1.5 0 0 1-1.5 1.5H20zM141 33v11.5a1.5 1.5 0 0 1-1.5 1.5h-10a1.5 1.5 0 0 1-1.5-1.5V33h-5.5a1.5 1.5 0 0 1-1.5-1.5v-11a1.5 1.5 0 0 1 1.5-1.5h25a1.5 1.5 0 0 1 1.5 1.5v11a1.5 1.5 0 0 1-1.5 1.5H141zM45.5 47C53.508 47 60 40.508 60 32.5S53.508 18 45.5 18 31 24.492 31 32.5 37.492 47 45.5 47zM76.282 20.112l14.335 23.61A1.5 1.5 0 0 1 89.334 46H60.666a1.5 1.5 0 0 1-1.283-2.278l14.335-23.61a1.5 1.5 0 0 1 2.564 0zM113.175 27.737A9.503 9.503 0 0 1 119 36.5a9.5 9.5 0 0 1-9.5 9.5H94.721a1.5 1.5 0 0 1-1.268-2.301l4.553-7.209A9 9 0 0 1 101 19h15.197a1.5 1.5 0 0 1 1.248 2.332l-4.27 6.405z"/>
        </g>
        <path fill="#494949" d="M3 1.888C3 1.01 2.79.397 2.096.054 1.985 0 1.868-.028 1.753.04 1.502.183.723.814.394 1.117c-.31.29-.394.463-.394.93v9.283c0 .773.208 1.32.897 1.619.118.054.231.075.346.015.253-.127 1.031-.685 1.357-.953.312-.258.4-.406.4-.82V1.887zM20 1.888c0-.878-.21-1.491-.904-1.834-.111-.054-.228-.082-.343-.013-.251.142-1.03.773-1.359 1.076-.31.29-.394.463-.394.93v9.283c0 .773.208 1.32.897 1.619.118.054.231.075.346.015.253-.127 1.031-.685 1.357-.953.312-.258.4-.406.4-.82V1.887zM38 1.888c0-.878-.21-1.491-.904-1.834-.111-.054-.228-.082-.343-.013-.251.142-1.03.773-1.359 1.076-.31.29-.394.463-.394.93v9.283c0 .773.208 1.32.897 1.619.118.054.231.075.346.015.253-.127 1.031-.685 1.357-.953.312-.258.4-.406.4-.82V1.887zM55 1.888c0-.878-.21-1.491-.904-1.834-.111-.054-.228-.082-.343-.013-.251.142-1.03.773-1.359 1.076-.31.29-.394.463-.394.93v9.283c0 .773.208 1.32.897 1.619.118.054.231.075.346.015.253-.127 1.031-.685 1.357-.953.312-.258.4-.406.4-.82V1.887zM13.876 6.53c.704.378 1.118.806 1.123 1.493.006.121-.016.217-.117.28-.213.14-1.018.487-1.39.615-.35.124-.524.116-.9-.084L6.317 5.491C5.526 5.073 5.042 4.61 5 3.9c-.006-.118.01-.227.119-.28.226-.135 1.102-.446 1.5-.557.386-.108.577-.085.995.135l6.261 3.332zM48.876 6.53c.698.378 1.118.806 1.124 1.493 0 .121-.023.217-.12.28-.21.14-1.015.487-1.39.615-.354.124-.527.116-.896-.084l-6.278-3.343c-.793-.418-1.268-.882-1.314-1.591-.009-.118.011-.227.12-.28.226-.135 1.1-.446 1.498-.557.383-.108.573-.085.996.135l6.26 3.332z"/>
        <path fill="#FF1414" d="M24.12 5c-.482 0-.66.11-.963.426-.315.325-.969 1.107-1.114 1.356-.073.119-.044.232.018.347.35.692 1.025.871 1.93.871h6.89c.477 0 .66-.056.964-.368.31-.321.964-1.11 1.117-1.357.067-.12.037-.231-.022-.344-.351-.695-.992-.931-1.896-.931H24.12z"/>
    </g>
</svg>
